<svg width="23" height="21" viewBox="0 0 23 21" fill="none" xmlns="http://www.w3.org/2000/svg">
<path d="M20.7104 4.21558H15.7544V2.21856C15.7544 1.26769 14.9808 0.494141 14.0299 0.494141H8.97001C8.01914 0.494141 7.24555 1.26769 7.24555 2.21856V4.21558H2.28964C1.0271 4.21558 0 5.24272 0 6.50522V18.216C0 19.4785 1.0271 20.5056 2.28964 20.5056H20.7104C21.9729 20.5056 23 19.4785 23 18.216V6.50522C23 5.24272 21.9729 4.21558 20.7104 4.21558ZM8.70619 2.21856C8.70619 2.07309 8.82454 1.95478 8.97001 1.95478H14.0299C14.1754 1.95478 14.2938 2.07314 14.2938 2.21856V4.21558H8.70619V2.21856ZM1.46064 6.50522C1.46064 6.04808 1.83251 5.67622 2.28964 5.67622H20.7104C21.1674 5.67622 21.5394 6.04808 21.5394 6.50522V7.58614C21.5394 8.6 20.8595 9.50601 19.8861 9.78942L12.2476 12.0134C11.7586 12.1558 11.2415 12.1558 10.7523 12.0134L3.1139 9.78937C2.14048 9.50597 1.46064 8.6 1.46064 7.58614V6.50522ZM20.7104 19.045H2.28964C1.83255 19.045 1.46064 18.6732 1.46064 18.2161V10.5599C1.82867 10.8443 2.2482 11.0586 2.70556 11.1918C11.1434 13.6485 10.7098 13.5809 11.5 13.5809C12.3006 13.5809 11.8467 13.6514 20.2944 11.1918C20.7518 11.0586 21.1713 10.8443 21.5393 10.5599V18.216C21.5394 18.6731 21.1674 19.045 20.7104 19.045Z" fill="#141822"/>
</svg>
