<svg width="23" height="23" viewBox="0 0 23 23" fill="none" xmlns="http://www.w3.org/2000/svg">
<path d="M22.1215 12.2111L21.1794 11.9093C21.0587 11.8706 20.9636 11.7743 20.9251 11.6516C20.7265 11.0203 20.4269 10.4277 20.0345 9.89005C19.8556 9.645 19.6568 9.411 19.4395 9.18824C19.5785 8.57851 19.6541 7.88847 19.6443 7.29231C19.6303 6.43947 19.4598 5.93926 19.1233 5.76299C18.942 5.66793 18.3904 5.37918 15.4046 6.74597C15.3339 6.77831 15.2678 6.81816 15.2067 6.8638C15.0054 6.80971 14.7996 6.75967 14.5926 6.71475C14.5677 6.70931 14.542 6.70451 14.5169 6.6992C14.7589 6.17065 14.9001 5.5966 14.9267 5.00399C14.935 4.81927 14.792 4.66285 14.6072 4.65463C14.423 4.64547 14.2661 4.78931 14.2579 4.97403C14.2143 5.94843 13.8101 6.86524 13.1198 7.55555C12.7074 7.96798 12.2245 8.26756 11.7098 8.45623C10.8172 8.33099 9.9081 8.33099 9.01555 8.45623C8.50084 8.26756 8.01797 7.96798 7.60554 7.55555C6.86909 6.8191 6.46349 5.83994 6.46349 4.79843C6.46349 3.75687 6.86909 2.77775 7.60554 2.0413C8.34199 1.30481 9.3212 0.899207 10.3627 0.899207C11.4041 0.899207 12.3833 1.30481 13.1198 2.0413C13.4157 2.33725 13.6603 2.67497 13.8467 3.04499C13.9298 3.21012 14.1311 3.27661 14.2962 3.19341C14.4613 3.11031 14.5278 2.90901 14.4446 2.74392C14.2262 2.31002 13.9397 1.9144 13.5932 1.56787C12.7303 0.704965 11.583 0.229736 10.3627 0.229736C9.14241 0.229736 7.99511 0.704965 7.1322 1.56787C6.2693 2.43082 5.79407 3.57808 5.79407 4.79838C5.79407 6.01868 6.2693 7.16599 7.1322 8.02889C7.38111 8.2778 7.6519 8.49186 7.93832 8.67119C7.93841 8.67119 7.9385 8.67114 7.93859 8.67114C7.73047 8.72523 7.52392 8.78596 7.31966 8.85424C7.14433 8.91286 7.04973 9.10248 7.10835 9.27785C7.16693 9.45319 7.35663 9.54779 7.53192 9.48921C9.35736 8.87895 11.3681 8.87895 13.1935 9.48921C13.2287 9.50098 13.2645 9.50655 13.2997 9.50655C13.4397 9.50655 13.5702 9.41797 13.6171 9.27785C13.6757 9.10252 13.5811 8.91286 13.4058 8.85424C13.2015 8.78596 12.995 8.72518 12.7868 8.67114C12.7869 8.67114 12.787 8.67119 12.7871 8.67119C13.0736 8.49186 13.3443 8.2778 13.5932 8.02889C13.8134 7.80869 14.0078 7.56822 14.1766 7.31266C14.2689 7.33058 14.3604 7.34936 14.4507 7.36894C14.5709 7.39504 14.6906 7.42308 14.8092 7.4525C14.8054 7.46705 14.8016 7.48156 14.7985 7.49634C14.6353 8.27102 14.6459 8.95617 14.83 9.53265C14.9955 10.0508 15.2942 10.4706 15.7177 10.7804C16.2168 11.1456 16.8194 11.3033 17.3652 11.3033C17.776 11.3033 18.1548 11.2139 18.4329 11.0564C18.7476 10.8782 19.0112 10.5027 19.2198 9.93888C19.3163 10.0515 19.4077 10.1668 19.4938 10.2848C19.8432 10.7634 20.1099 11.2909 20.2865 11.8525C20.3903 12.1824 20.6478 12.4419 20.9753 12.5469L21.9174 12.8487C22.1646 12.9279 22.3307 13.1554 22.3307 13.415V14.9771C22.3307 15.2367 22.1646 15.4642 21.9174 15.5434L20.3995 16.0296C20.1567 16.1075 19.9512 16.2743 19.8208 16.4996C19.2245 17.5302 18.2869 18.383 17.034 19.0344C16.8893 19.1098 16.789 19.2445 16.7588 19.4041L16.2727 21.9783C16.2592 22.0492 16.1971 22.1007 16.1249 22.1007H14.5443C14.4721 22.1007 14.4099 22.0492 14.3965 21.9783L14.1273 20.5557C14.0742 20.2758 13.8117 20.0898 13.5292 20.1326C12.8483 20.2356 12.1467 20.2878 11.444 20.2878C10.9212 20.2878 10.4051 20.2586 9.9099 20.2011C9.6361 20.1696 9.38103 20.3562 9.32987 20.6266L9.07399 21.9783C9.06056 22.0492 8.99844 22.1007 8.92625 22.1007H7.34558C7.27339 22.1007 7.21126 22.0492 7.19765 21.9772L6.72957 19.546C6.69942 19.3893 6.60105 19.2561 6.4595 19.1805C4.32373 18.0404 3.19484 16.1355 3.19484 13.672C3.19484 12.4273 3.46716 11.3267 4.0042 10.4005C4.50535 9.53629 5.23731 8.82172 6.17972 8.27659C6.33973 8.18401 6.3944 7.97925 6.30187 7.8192C6.20933 7.65919 6.00457 7.6046 5.84452 7.69705C4.01714 8.75416 2.91498 10.385 2.61153 12.4563V12.4563C2.57932 12.4534 2.54707 12.4506 2.51495 12.4473C2.52079 12.2238 2.48036 11.9983 2.39231 11.7794C2.19812 11.2967 1.79921 10.9483 1.376 10.8918C1.0425 10.8472 0.725129 10.9888 0.504877 11.2798C0.185527 11.7017 0.237592 12.0357 0.337453 12.2415C0.506045 12.5889 0.939406 12.8346 1.65856 12.9891C1.6388 13.0187 1.61705 13.0485 1.59324 13.0783C1.16833 13.6112 0.667719 13.7291 0.342664 13.7402C0.152375 13.7466 0 13.8994 0 14.0898V14.0914C0 14.2792 0.148197 14.4324 0.335836 14.441C0.359869 14.4421 0.38498 14.4427 0.411125 14.4427C0.82243 14.4427 1.48256 14.291 2.11676 13.4958C2.21689 13.3702 2.29847 13.2378 2.36118 13.101C2.42434 13.1081 2.48503 13.1142 2.54316 13.1196C2.54316 13.1195 2.54316 13.1194 2.54321 13.1193C2.5318 13.3007 2.52546 13.4847 2.52546 13.672C2.52546 15.0658 2.85775 16.3086 3.51303 17.3659C4.11722 18.3407 4.98229 19.1389 6.08503 19.7391L6.54009 22.1027C6.61326 22.4894 6.95202 22.7701 7.34558 22.7701H8.92625C9.31981 22.7701 9.65856 22.4894 9.73174 22.1027L9.96309 20.8805C10.4436 20.9314 10.941 20.9572 11.4439 20.9572C12.1339 20.9572 12.8231 20.9091 13.4948 20.8142L13.7387 22.1028C13.8119 22.4895 14.1507 22.7701 14.5442 22.7701H16.1248C16.5184 22.7701 16.8572 22.4895 16.9304 22.1026L17.4037 19.5964C18.741 18.8893 19.7489 17.9604 20.4002 16.8348C20.4471 16.7537 20.5194 16.6942 20.6037 16.6672L22.1215 16.181C22.647 16.0126 23 15.5288 23 14.977V13.4149C23 12.8632 22.647 12.3794 22.1215 12.2111ZM18.9246 8.23293C18.7958 9.33468 18.4502 10.2771 18.1029 10.4738C17.7082 10.6974 16.797 10.7406 16.1128 10.2401C15.4279 9.73902 15.1999 8.83798 15.4535 7.63434C15.4535 7.6343 15.4535 7.6343 15.4535 7.6343C15.479 7.51341 15.5648 7.40884 15.6832 7.35466C17.359 6.58757 18.3251 6.33669 18.684 6.33669C18.7382 6.33669 18.7786 6.34239 18.8054 6.3529C18.9132 6.46781 19.0546 7.12102 18.9246 8.23293ZM0.939811 11.9492C0.905176 11.8778 0.986934 11.7522 1.03877 11.6837C1.12094 11.5752 1.19663 11.553 1.25381 11.553C1.2659 11.553 1.27717 11.554 1.28751 11.5553C1.44141 11.5759 1.65703 11.7452 1.77127 12.0292C1.79818 12.096 1.83313 12.2068 1.8413 12.3449C1.37793 12.2489 1.01793 12.1104 0.939811 11.9492Z" fill="#131720"/>
</svg>
