<svg width="23" height="23" viewBox="0 0 23 23" fill="none" xmlns="http://www.w3.org/2000/svg">
<path d="M17.4031 7.86886C17.3484 7.73859 17.2815 7.61582 17.2035 7.50194H18.373C19.5124 7.50194 20.4394 6.57493 20.4394 5.43554C20.4394 4.29614 19.5124 3.36913 18.373 3.36913H14.7757C15.0044 3.03662 15.1386 2.63435 15.1386 2.20117C15.1386 1.06177 14.2116 0.134766 13.0722 0.134766H2.0664C0.927006 0.134766 0 1.06177 0 2.20117C0 3.34056 0.927006 4.26757 2.0664 4.26757H5.66374C5.43504 4.60008 5.30077 5.00236 5.30077 5.43554C5.30077 5.86872 5.435 6.27099 5.66374 6.6035H4.49218C3.35278 6.6035 2.42578 7.53051 2.42578 8.6699C2.42578 9.32428 2.73187 9.90822 3.20809 10.2871C2.73187 10.666 2.42578 11.2499 2.42578 11.9043C2.42578 12.5586 2.73187 13.1426 3.20809 13.5215C2.73187 13.9003 2.42578 14.4843 2.42578 15.1386C2.42578 15.793 2.73187 16.377 3.20809 16.7558C2.73187 17.1347 2.42578 17.7186 2.42578 18.373C2.42578 19.5124 3.35278 20.4394 4.49218 20.4394H9.78621C11.1809 21.9311 13.1649 22.8652 15.3633 22.8652C19.5742 22.8652 23 19.4394 23 15.2285C23 11.7239 20.6268 8.76348 17.4031 7.86886ZM18.373 4.26757C19.0171 4.26757 19.541 4.79154 19.541 5.43554C19.541 6.07954 19.0171 6.6035 18.373 6.6035H15.498H7.36717C6.72313 6.6035 6.19921 6.07954 6.19921 5.43554C6.19921 4.79154 6.72313 4.26757 7.36717 4.26757H18.373ZM2.0664 3.36913C1.42236 3.36913 0.898436 2.84517 0.898436 2.20117C0.898436 1.55717 1.42236 1.0332 2.0664 1.0332H13.0722C13.7163 1.0332 14.2402 1.55717 14.2402 2.20117C14.2402 2.84517 13.7163 3.36913 13.0722 3.36913H2.0664ZM4.49218 7.50194H15.498C15.679 7.50194 15.8522 7.54399 16.0077 7.61927C15.7952 7.60144 15.5804 7.59183 15.3633 7.59183C13.2544 7.59183 11.3426 8.45114 9.95925 9.83787H4.49218C3.84818 9.83787 3.32421 9.3139 3.32421 8.6699C3.32421 8.02591 3.84818 7.50194 4.49218 7.50194ZM4.49218 10.7363H9.19167C8.68172 11.435 8.28744 12.223 8.03705 13.0722H4.49218C3.84813 13.0722 3.32421 12.5483 3.32421 11.9043C3.32421 11.2603 3.84813 10.7363 4.49218 10.7363ZM4.49218 13.9707H7.83077C7.76262 14.38 7.72659 14.8001 7.72659 15.2285C7.72659 15.5945 7.75305 15.9543 7.80305 16.3066H4.49218C3.84813 16.3066 3.32421 15.7827 3.32421 15.1386C3.32421 14.4946 3.84813 13.9707 4.49218 13.9707ZM4.49218 19.541C3.84813 19.541 3.32421 19.0171 3.32421 18.373C3.32421 17.729 3.84813 17.205 4.49218 17.205H7.98646C8.21314 18.0502 8.58136 18.8378 9.06427 19.541H4.49218ZM15.3633 21.9668C11.6478 21.9668 8.62503 18.944 8.62503 15.2285C8.62503 11.5131 11.6478 8.49026 15.3633 8.49026C19.0788 8.49026 22.1016 11.5131 22.1016 15.2285C22.1016 18.944 19.0788 21.9668 15.3633 21.9668Z" fill="#0D0D0D"/>
</svg>
