<svg width="23" height="21" viewBox="0 0 23 21" fill="none" xmlns="http://www.w3.org/2000/svg">
<path d="M0.248987 5.62224L2.03286 6.65226C2.2957 6.80406 2.50225 7.03963 2.61456 7.31559C2.8818 7.97213 3.34818 8.50689 3.96335 8.86204L8.3104 11.3718C8.55235 11.5115 8.83384 11.5482 9.10274 11.4761C9.39371 11.3981 9.63283 11.2026 9.76732 10.9326V12.512C9.62209 12.4042 9.45619 12.3237 9.27614 12.2755C8.90113 12.1751 8.50968 12.2268 8.17361 12.4211C7.87048 12.5964 7.76644 12.9858 7.94163 13.2893L9.41091 15.8341C9.50394 15.9953 9.71005 16.0505 9.87114 15.9574C10.0323 15.8644 10.0875 15.6584 9.99445 15.4972L8.54463 12.9861C8.71686 12.8972 8.91335 12.8759 9.10193 12.9264C9.30296 12.9802 9.47093 13.1091 9.57497 13.2893L9.81252 13.7007C9.88875 13.8327 10.0442 13.8971 10.1915 13.8577C10.3388 13.8182 10.4412 13.6847 10.4412 13.5322C10.4412 13.0591 10.4412 10.2127 10.4412 9.64055C10.4412 9.43637 10.6073 9.27021 10.8115 9.27021C11.0158 9.27021 11.1819 9.43633 11.1819 9.64055V12.8109C11.1819 12.997 11.3327 13.1478 11.5188 13.1478C11.7049 13.1478 11.8557 12.997 11.8557 12.8109V9.18364C11.8557 8.97722 12.0157 8.8036 12.2123 8.79659C12.3143 8.79336 12.4102 8.82974 12.4832 8.90014C12.5562 8.97057 12.5964 9.06523 12.5964 9.16666V12.8109C12.5964 12.9969 12.7473 13.1478 12.9334 13.1478C13.1195 13.1478 13.2703 12.9969 13.2703 12.8109V9.6405C13.2703 9.43633 13.4364 9.27016 13.6406 9.27016C13.8448 9.27016 14.011 9.43629 14.011 9.6405V12.8109C14.011 12.9969 14.1618 13.1478 14.3479 13.1478C14.534 13.1478 14.6848 12.9969 14.6848 12.8109V10.5854C14.6848 10.3812 14.8509 10.2151 15.0551 10.2151C15.2594 10.2151 15.4255 10.3812 15.4255 10.5854V15.6049C15.4255 16.1641 15.2446 16.6924 14.9024 17.1327C14.6282 17.4856 14.477 17.9291 14.477 18.3816L14.4769 20.2658H11.3897L11.3896 18.3812C11.3896 17.9274 11.2397 17.4855 10.9675 17.1367C10.9077 17.0601 10.8518 16.9791 10.8013 16.896C10.7048 16.7369 10.4976 16.6863 10.3385 16.7828C10.1794 16.8794 10.1288 17.0867 10.2254 17.2457C10.2894 17.3512 10.3604 17.454 10.4363 17.5513C10.6165 17.7822 10.7158 18.077 10.7158 18.3812L10.716 20.4416C10.716 20.7162 10.9394 20.9396 11.2139 20.9396H14.6527C14.9273 20.9396 15.1507 20.7162 15.1507 20.4416L15.1508 18.3817C15.1509 18.0782 15.2515 17.7815 15.4344 17.5463C15.8694 16.9866 16.0993 16.3153 16.0993 15.6049V10.5854C16.0993 9.9865 15.5931 9.50632 14.9905 9.54329L16.3582 8.75364C16.3374 8.93338 16.3507 9.11729 16.3989 9.29729C16.4995 9.67222 16.7401 9.98542 17.0763 10.1793C17.3791 10.3538 17.7686 10.2501 17.9441 9.94611L19.1155 7.91723C19.2085 7.7561 19.1533 7.55004 18.9922 7.457C18.831 7.36392 18.6249 7.41918 18.532 7.58032L17.38 9.5755C17.2169 9.4707 17.1003 9.31122 17.0497 9.12264C16.9958 8.92165 17.0234 8.71178 17.1274 8.53159L17.3649 8.12019C17.4411 7.98812 17.4192 7.82132 17.3114 7.71347C17.2036 7.60565 17.0369 7.58364 16.9047 7.65992L14.5 9.04825C14.3373 8.81281 14.0805 8.64718 13.7843 8.60621L15.9097 7.37911C16.0708 7.28607 16.126 7.08002 16.033 6.91888C15.94 6.75774 15.7338 6.70253 15.5728 6.79557L12.8783 8.35123C12.6835 8.19454 12.4421 8.11386 12.1882 8.1232C12.0802 8.12702 11.9767 8.14724 11.8798 8.18138C11.9081 8.09459 11.9665 8.0224 12.0465 7.97622L12.4563 7.73957C12.4565 7.73948 12.4566 7.73939 12.4568 7.7393L15.2024 6.15412C15.3636 6.06109 15.4188 5.85503 15.3258 5.69389C15.2328 5.53271 15.0266 5.47754 14.8655 5.57058L12.1199 7.15575C11.9444 7.25768 11.7165 7.19771 11.614 7.02018C11.522 6.86084 11.5623 6.6608 11.7006 6.54809C11.7015 6.54742 11.7023 6.5467 11.7031 6.54602C11.7176 6.53443 11.7331 6.52383 11.7496 6.51431C12.5247 6.06675 13.5827 5.45594 14.4952 4.92913C14.6563 4.8361 14.7115 4.63004 14.6185 4.4689C14.5255 4.30772 14.3193 4.25251 14.1583 4.34559L12.231 5.45832C12.0542 5.56038 11.8273 5.49965 11.7251 5.32274C11.6228 5.14543 11.6834 4.9192 11.8607 4.81682L16.2077 2.30706C16.692 2.02746 17.2399 1.91996 17.7924 1.99615C18.2352 2.05729 18.6947 1.96627 19.0867 1.74009L20.7184 0.798112L22.2619 3.47167L20.6299 4.41405C20.237 4.64095 19.9292 4.99175 19.7632 5.40185C19.7105 5.53208 19.6465 5.65849 19.5729 5.77758C19.5685 5.78472 19.5437 5.82794 19.3315 6.19545C19.2384 6.35659 19.2937 6.56264 19.4548 6.65568C19.616 6.74876 19.822 6.6935 19.915 6.53237L20.1488 6.12744C20.2412 5.9774 20.3216 5.81832 20.3878 5.65463C20.4977 5.38312 20.7034 5.14974 20.9668 4.99759L22.7512 3.9673C22.9889 3.82997 23.0707 3.52481 22.9334 3.28699L21.214 0.308907C21.0767 0.0711781 20.7716 -0.0105807 20.5337 0.126612L18.7498 1.1565C18.4869 1.30821 18.1796 1.3693 17.8844 1.32865C17.1824 1.23193 16.486 1.36836 15.8708 1.72351L11.5237 4.23328C11.0049 4.53283 10.8423 5.2112 11.1756 5.71464L9.8078 4.92495C9.97388 4.85308 10.1265 4.74971 10.2583 4.61786C10.5327 4.34334 10.6837 3.97835 10.6834 3.59026C10.6832 3.24014 10.398 2.95524 10.0476 2.95524H7.81217C7.6261 2.95524 7.47525 3.10609 7.47525 3.29216C7.47525 3.47823 7.6261 3.62908 7.81217 3.62908H10.0088C9.99957 3.82274 9.91984 4.00346 9.78183 4.14155C9.63476 4.28872 9.43917 4.3698 9.23109 4.3698H8.75603C8.60352 4.3698 8.47006 4.47223 8.43057 4.61953C8.39113 4.76683 8.4555 4.92226 8.58757 4.99849L10.9922 6.38682C10.8697 6.64544 10.8547 6.95068 10.9672 7.22763L8.84183 6.00058C8.68065 5.9075 8.47464 5.96271 8.3816 6.12389C8.28857 6.28502 8.34378 6.49108 8.50492 6.58412L11.1994 8.13978C11.1698 8.33155 11.1939 8.52472 11.2691 8.70212C11.0408 8.59035 10.7885 8.57068 10.5614 8.62669L8.13462 7.22556C7.97348 7.13248 7.76742 7.18774 7.67439 7.34888C7.58136 7.51001 7.63657 7.71607 7.7977 7.80911L9.94975 9.05161C9.83475 9.21935 9.76737 9.42222 9.76737 9.64055V9.80159C9.42205 9.60223 8.1299 8.8562 7.42732 8.45055C7.26614 8.35747 7.06012 8.41273 6.96709 8.57386C6.87405 8.735 6.92926 8.94106 7.0904 9.03409L9.01766 10.1468C9.19452 10.2489 9.2553 10.4759 9.15324 10.6527C9.0509 10.83 8.82463 10.8906 8.64732 10.7883L4.30027 8.27855C3.81601 7.99895 3.4489 7.57816 3.23866 7.06164C3.0702 6.64768 2.76163 6.29509 2.36982 6.06877L0.738147 5.12661L2.28173 2.45305L3.91389 3.39526C4.30687 3.62211 4.76463 3.71317 5.20267 3.6519C5.34166 3.6324 5.48308 3.62476 5.62328 3.62885C5.63056 3.62908 5.59758 3.62899 6.23993 3.62899C6.426 3.62899 6.57685 3.47814 6.57685 3.29207C6.57685 3.106 6.426 2.95515 6.23993 2.95515H5.63819C5.46196 2.95016 5.28407 2.96009 5.10928 2.98453C4.81921 3.02518 4.51432 2.96373 4.25076 2.81162L2.46636 1.78155C2.22863 1.64427 1.92338 1.72612 1.78614 1.96385L0.0667368 4.94193C-0.070546 5.17975 0.0112128 5.48491 0.248987 5.62224Z" fill="#0D0D0D"/>
</svg>
