<svg width="1553" height="1855" viewBox="0 0 1553 1855" fill="none" xmlns="http://www.w3.org/2000/svg">
<g style="mix-blend-mode:color-dodge" filter="url(#filter0_f_54_622)">
<path d="M1118.19 491.492C1258.58 608.141 1066.34 806.004 952.667 890.355C887.395 944.211 746.224 1025.13 703.714 917.97C650.575 784.017 685.471 924.717 340.189 987.458C-5.09327 1050.2 548.825 444.507 688.382 255.894C827.94 67.2803 942.705 345.681 1118.19 491.492Z" fill="#9AC7FC"/>
<path d="M1084.59 994.394C1183.29 1167.04 955.738 1277.64 829.625 1311.36C755.807 1335.98 605.34 1354.72 594.014 1232.73C579.858 1080.24 575.529 1231.55 242.437 1146.21C-90.6542 1060.88 574.2 707.686 751.011 583.755C927.823 459.823 961.215 778.584 1084.59 994.394Z" fill="#101F2B"/>
<path d="M1225.15 857.125C1291.09 968.882 1158.68 1021.8 1084.23 1034.29C1040.84 1044.58 951.188 1046.36 939.68 971.144C925.296 877.123 928.532 969.237 725.174 895.739C521.816 822.241 1069.39 340.373 1170.81 276.056C1272.23 211.74 1142.72 717.429 1225.15 857.125Z" fill="white"/>
</g>
<defs>
<filter id="filter0_f_54_622" x="0.400879" y="42.5009" width="1392.61" height="1436.98" filterUnits="userSpaceOnUse" color-interpolation-filters="sRGB">
<feFlood flood-opacity="0" result="BackgroundImageFix"/>
<feBlend mode="normal" in="SourceGraphic" in2="BackgroundImageFix" result="shape"/>
<feGaussianBlur stdDeviation="75" result="effect1_foregroundBlur_54_622"/>
</filter>
</defs>
</svg>
