<svg width="20" height="28" viewBox="0 0 20 28" fill="none" xmlns="http://www.w3.org/2000/svg">
<path d="M18.1769 11.2213H5.5929V7.16645C5.5929 5.06911 6.99112 3.25142 8.94864 2.83195C11.6053 2.41248 13.9822 4.37 13.9822 7.02663C13.9822 7.86556 14.6814 8.42485 15.3805 8.42485C16.0796 8.42485 16.7787 7.86556 16.7787 7.02663C16.7787 2.97177 13.2831 -0.383966 9.08846 0.0355018C5.45308 0.454969 2.79645 3.67089 2.79645 7.30627V11.2213H1.39822C0.699112 11.2213 0 11.7806 0 12.6195V26.6018C0 27.3009 0.699112 28 1.39822 28H18.1769C19.0159 28 19.5751 27.3009 19.5751 26.6018V12.6195C19.5751 11.7806 19.0159 11.2213 18.1769 11.2213ZM11.1858 20.5894V22.4071C11.1858 23.246 10.6265 23.8053 9.78757 23.8053C8.94864 23.8053 8.38935 23.246 8.38935 22.4071V20.5894C7.55041 20.0301 6.99112 19.1912 6.99112 18.2124C6.99112 16.3947 8.66899 15.1363 10.4867 15.5558C11.4654 15.8354 12.3044 16.6744 12.584 17.6531C12.8637 18.9115 12.1646 20.0301 11.1858 20.5894Z" fill="#CDD7DF"/>
</svg>
