<svg width="26" height="32" viewBox="0 0 26 32" fill="none" xmlns="http://www.w3.org/2000/svg">
<path d="M24.871 32C25.4388 32 25.9033 31.5355 25.9033 30.9677C25.9033 30.4 25.4388 29.9354 24.871 29.9354H22.8065V24.4025C22.8065 23.3548 22.3523 22.3587 21.5679 21.6722L16.4272 17.1767C16.0814 16.8773 15.8957 16.4593 15.8957 15.9999C15.8957 15.5405 16.0867 15.1225 16.4272 14.8231L21.5679 10.3276C22.3576 9.64115 22.8065 8.64504 22.8065 7.59728V2.06441H24.871C25.4388 2.06441 25.9033 1.59988 25.9033 1.03212C25.9033 0.464359 25.4387 0 24.871 0H22.8065H3.19358H1.12909C0.561327 0 0.0968018 0.464525 0.0968018 1.03229C0.0968018 1.60005 0.561327 2.06458 1.12909 2.06458H3.19358V8.10332C3.19358 9.15624 3.64779 10.1575 4.44782 10.844L9.03101 14.8181C9.37683 15.1175 9.57298 15.5407 9.57298 16.0001C9.57298 16.4595 9.38198 16.8826 9.03101 17.182L4.44782 21.151C3.64779 21.8427 3.19358 22.8439 3.19358 23.8968V29.9356H1.12909C0.561327 29.9356 0.0968018 30.4001 0.0968018 30.9679C0.0968018 31.5356 0.561327 32.0002 1.12909 32.0002H3.19358H22.8065H24.871V32ZM20.742 29.9355H5.25807V23.8968C5.25807 23.4426 5.45423 23.0142 5.79489 22.7148L10.3781 18.7458C11.173 18.0542 11.6323 17.0581 11.6323 16.0052C11.6323 14.9522 11.1781 13.951 10.3781 13.2645L5.79489 9.29034C5.45423 8.99094 5.25807 8.55745 5.25807 8.10324V2.06449H20.742V7.59737C20.742 8.04642 20.5458 8.47476 20.2052 8.77415L15.0645 13.2697C14.28 13.9561 13.8258 14.9522 13.8258 16C13.8258 17.0478 14.28 18.0439 15.0645 18.7303L20.2103 23.2258C20.551 23.5252 20.7419 23.9536 20.7419 24.4026V29.9355H20.742Z" fill="white"/>
<path d="M14.2955 19.1897C13.7432 18.7045 13.2891 18.1058 13.0413 17.4142C12.8813 16.9703 12.8142 16.5213 12.8039 16.0774C12.8039 16.0517 12.8039 16 12.8039 16H12.6542V16.0723C12.6336 17.2491 12.1226 18.3587 11.2348 19.133L6.65165 23.1071C6.42454 23.3085 6.29036 23.5923 6.29036 23.8968V28.4439C6.29036 28.6968 6.49683 28.9033 6.74973 28.9033H19.2504C19.5033 28.9033 19.7098 28.6968 19.7098 28.4439V24.4026C19.7098 24.0981 19.5807 23.8142 19.3536 23.6129L14.2955 19.1897Z" fill="white"/>
</svg>
