<svg width="320" height="767" viewBox="0 0 320 767" fill="none" xmlns="http://www.w3.org/2000/svg">
<g style="mix-blend-mode:color-dodge" filter="url(#filter0_f_126_541)">
<path d="M373.612 257.931C434.639 302.962 376.65 330.276 340.026 338.304C319.384 344.263 272.195 348.302 248.577 316.791C219.054 277.402 242.214 316.39 117.127 292.633C-7.95936 268.877 156.585 181.324 195.465 150.305C234.346 119.286 297.328 201.643 373.612 257.931Z" fill="#9AC7FC"/>
<path d="M359.566 412.358C400.52 483.899 302.531 527.602 248.417 540.51C216.709 550.07 152.296 556.659 148.314 506.534C143.337 443.879 140.426 505.916 -1.27491 468.475C-142.975 431.035 143.536 291.018 219.941 241.475C296.347 191.932 308.374 322.931 359.566 412.358Z" fill="#101F2B"/>
<path d="M420.577 357.077C447.963 403.402 391.025 424.139 359.132 428.718C340.524 432.622 302.211 432.697 297.823 401.76C292.338 363.088 293.074 400.896 206.713 369.26C120.353 337.625 357.665 143.968 401.444 118.327C445.223 92.6861 386.345 299.171 420.577 357.077Z" fill="white"/>
</g>
<defs>
<filter id="filter0_f_126_541" x="-156.057" y="0.133789" width="699.867" height="663.045" filterUnits="userSpaceOnUse" color-interpolation-filters="sRGB">
<feFlood flood-opacity="0" result="BackgroundImageFix"/>
<feBlend mode="normal" in="SourceGraphic" in2="BackgroundImageFix" result="shape"/>
<feGaussianBlur stdDeviation="58" result="effect1_foregroundBlur_126_541"/>
</filter>
</defs>
</svg>
