<svg width="1318" height="988" viewBox="0 0 1318 988" fill="none" xmlns="http://www.w3.org/2000/svg">
<g style="mix-blend-mode:color-dodge" filter="url(#filter0_f_18_6)">
<path d="M717.3 433.336C829.497 408.682 802.796 502.026 775.421 551.78C761.626 581.252 719.167 639.072 659.691 634.567C585.347 628.936 652.887 641.42 501.052 760.313C349.217 879.207 413.524 604.321 416.943 529.064C420.361 453.808 577.055 464.153 717.3 433.336Z" fill="#9AC7FC"/>
<path d="M879.323 603.365C1001.72 628.034 953.806 783.318 914.55 857.877C893.823 903.556 837.091 983.551 775.983 938.098C699.598 881.282 767.41 946.474 583.406 1070.66C399.403 1194.84 525.55 728.6 545.278 592.093C565.007 455.586 726.329 572.528 879.323 603.365Z" fill="#101F2B"/>
<path d="M877.159 478.683C957.278 493.668 924.129 579.255 897.54 620.176C883.432 645.281 845.306 689.029 805.664 663.175C756.111 630.858 799.943 667.728 677.749 734.618C555.556 801.508 571.49 337.852 585.925 262.375C600.36 186.898 777.01 459.953 877.159 478.683Z" fill="white"/>
</g>
<g style="mix-blend-mode:color-dodge" filter="url(#filter1_f_18_6)">
<path d="M1040.57 499.162C1016.85 564.332 977.898 520.527 961.39 490.479C950.828 473.913 935.087 433.566 956.621 404.704C983.539 368.627 955.328 399.019 943.832 283.16C932.336 167.301 1051.66 288.998 1088.92 315.083C1126.18 341.168 1070.22 417.701 1040.57 499.162Z" fill="#9AC7FC"/>
<path d="M901.486 526.761C849.321 581.176 785.658 506.523 760.347 462.394C743.766 437.053 721.337 382.257 764.274 365.808C817.945 345.246 762.777 358.728 758.989 224.76C755.201 90.7907 952.076 305.908 1015.28 360.119C1078.49 414.331 966.693 458.743 901.486 526.761Z" fill="#101F2B"/>
<path d="M965.745 565.987C932.191 601.983 899.283 557.4 887.023 530.609C878.788 515.297 868.818 481.71 894.821 469.864C927.324 455.057 894.351 465.475 899.776 381.548C905.202 297.621 1136.41 455.718 1170.22 487.49C1204.02 519.262 1007.69 520.992 965.745 565.987Z" fill="white"/>
</g>
<defs>
<filter id="filter0_f_18_6" x="250.531" y="99.2172" width="857.117" height="1142.26" filterUnits="userSpaceOnUse" color-interpolation-filters="sRGB">
<feFlood flood-opacity="0" result="BackgroundImageFix"/>
<feBlend mode="normal" in="SourceGraphic" in2="BackgroundImageFix" result="shape"/>
<feGaussianBlur stdDeviation="75" result="effect1_foregroundBlur_18_6"/>
</filter>
<filter id="filter1_f_18_6" x="589.481" y="31.5154" width="734.627" height="697.943" filterUnits="userSpaceOnUse" color-interpolation-filters="sRGB">
<feFlood flood-opacity="0" result="BackgroundImageFix"/>
<feBlend mode="normal" in="SourceGraphic" in2="BackgroundImageFix" result="shape"/>
<feGaussianBlur stdDeviation="75" result="effect1_foregroundBlur_18_6"/>
</filter>
</defs>
</svg>
