<svg width="115" height="24" viewBox="0 0 115 24" fill="none" xmlns="http://www.w3.org/2000/svg">
<path d="M7.01345 9.8834L11.4676 5.31697L15.9236 9.88711L18.5138 7.22863L11.4676 0L4.42139 7.22677L7.01345 9.8834Z" fill="#FDFDFD"/>
<path d="M-0.000976562 11.761L2.59014 9.10347L5.18126 11.761L2.59014 14.4185L-0.000976562 11.761Z" fill="#FDFDFD"/>
<path d="M7.01366 13.6381L11.4678 18.2064L15.9238 13.6362L18.5158 16.291L18.514 16.2929L11.4678 23.5215L4.42159 16.2966L4.41797 16.2929L7.01366 13.6381Z" fill="#FDFDFD"/>
<path d="M17.75 11.7617L20.3411 9.1042L22.9322 11.7617L20.3411 14.4192L17.75 11.7617Z" fill="#FDFDFD"/>
<path d="M14.0961 11.7598L11.4679 9.06226L9.52426 11.0557L9.29965 11.2842L8.83956 11.756L8.83594 11.7598L8.83956 11.7653L11.4679 14.4591L14.0961 11.7616L14.098 11.7598H14.0961Z" fill="#FDFDFD"/>
<path d="M26.9746 5.69995H32.6116C34.01 5.69995 35.0678 6.07151 35.7851 6.81462C36.0553 7.08912 36.2684 7.41707 36.4113 7.77858C36.5542 8.14009 36.624 8.52761 36.6165 8.91763V8.95293C36.6214 9.27243 36.578 9.59078 36.4879 9.89668C36.4077 10.16 36.2912 10.4102 36.1419 10.6398C36.0028 10.8563 35.8345 11.0514 35.642 11.2194C35.4539 11.3855 35.2479 11.5288 35.0279 11.6467C35.6622 11.8733 36.2325 12.256 36.689 12.7614C37.0923 13.232 37.294 13.8822 37.294 14.712V14.7473C37.3054 15.2656 37.1955 15.7791 36.9733 16.2447C36.7581 16.6737 36.4426 17.0414 36.055 17.3148C35.6168 17.6161 35.1288 17.8333 34.6149 17.9557C34.0044 18.1042 33.3785 18.176 32.7511 18.1694H26.9746V5.69995ZM32.0464 10.742C32.5341 10.7661 33.0195 10.6585 33.4539 10.4299C33.6233 10.3284 33.7616 10.1803 33.8531 10.0023C33.9447 9.82435 33.9858 9.62365 33.9719 9.42295V9.38765C33.9809 9.20271 33.9443 9.01845 33.8654 8.85187C33.7866 8.6853 33.6681 8.54179 33.5209 8.43461C33.2202 8.21539 32.7861 8.10578 32.2185 8.10578H29.5812V10.742H32.0464ZM32.7583 15.7673C33.2442 15.7952 33.7278 15.6812 34.1531 15.4384C34.3187 15.3293 34.4528 15.1766 34.5414 14.9962C34.6299 14.8159 34.6697 14.6144 34.6566 14.4129V14.3776C34.6631 14.1861 34.6238 13.9959 34.542 13.8236C34.4602 13.6513 34.3385 13.5022 34.1875 13.3893C33.8759 13.1416 33.3724 13.0178 32.6768 13.0178H29.5812V15.7673H32.7583Z" fill="#FDFDFD"/>
<path d="M40.6523 5.69995H43.3277V18.1731H40.6523V5.69995Z" fill="#FDFDFD"/>
<path d="M47.376 5.69995H49.8431L55.5452 13.3763V5.69995H58.1862V18.1731H55.9093L50.0206 10.2441V18.1731H47.376V5.69995Z" fill="#FDFDFD"/>
<path d="M66.2868 5.6106H68.7503L73.9616 18.1729H71.1685L70.0563 15.3751H64.9138L63.8016 18.1729H61.0737L66.2868 5.6106ZM69.1017 12.9525L67.4823 8.9063L65.8702 12.9525H69.1017Z" fill="#FDFDFD"/>
<path d="M76.854 5.69995H79.3211L85.0196 13.3763V5.69995H87.6606V18.1731H85.3837L79.495 10.2441V18.1731H76.854V5.69995Z" fill="#FDFDFD"/>
<path d="M97.2898 18.3922C96.4372 18.3997 95.5919 18.2303 94.8047 17.8943C94.0635 17.5804 93.3912 17.1176 92.8271 16.5331C92.2631 15.9486 91.8189 15.2542 91.5206 14.4908C91.2059 13.6924 91.0465 12.8385 91.0515 11.9773V11.942C91.0375 10.2444 91.6744 8.60909 92.8248 7.38853C93.3909 6.79232 94.0686 6.31965 94.8173 5.99891C95.6317 5.65292 96.5062 5.48037 97.3876 5.49174C97.909 5.48775 98.4295 5.53566 98.9418 5.63479C99.3801 5.71981 99.8087 5.85117 100.221 6.02678C100.594 6.18815 100.95 6.39126 101.28 6.63242C101.603 6.86762 101.906 7.12985 102.186 7.4164L100.485 9.43023C100.05 9.01899 99.5629 8.67082 99.036 8.39545C98.5184 8.14161 97.9504 8.01442 97.3768 8.02389C96.8994 8.01867 96.4264 8.11768 95.9891 8.31435C95.5519 8.51101 95.1605 8.80084 94.8409 9.16457C94.524 9.52737 94.2758 9.9476 94.1091 10.4037C93.9346 10.8857 93.8468 11.3962 93.8501 11.9104V11.9457C93.8484 12.4591 93.9361 12.9687 94.1091 13.4505C94.2737 13.9082 94.5193 14.3308 94.8336 14.697C95.1507 15.0653 95.5412 15.3594 95.9787 15.5594C96.4162 15.7594 96.8905 15.8606 97.3695 15.8563C97.9795 15.876 98.5848 15.7414 99.132 15.4643C99.653 15.1731 100.135 14.8134 100.565 14.3942L102.267 16.1591C101.967 16.4938 101.642 16.8043 101.295 17.088C100.954 17.3644 100.584 17.6006 100.192 17.7921C99.7736 17.9939 99.3333 18.143 98.8802 18.2361C98.3567 18.3438 97.8238 18.3961 97.2898 18.3922Z" fill="#FDFDFD"/>
<path d="M105.425 5.69995H114.578V8.14108H108.057V10.6714H113.799V13.1125H108.066V15.732H114.668V18.1731H105.43L105.425 5.69995Z" fill="#FDFDFD"/>
</svg>
