<svg width="202" height="334" viewBox="0 0 202 334" fill="none" xmlns="http://www.w3.org/2000/svg">
<g filter="url(#filter0_f_1_275)">
<path d="M127.5 222C127.5 252.652 215.5 -79.0002 127.5 284C96.8482 284 72 259.152 72 228.5C72 197.848 88.8482 157 119.5 157C150.152 157 127.5 191.348 127.5 222Z" fill="#885EEF"/>
</g>
<g filter="url(#filter1_f_1_275)">
<ellipse cx="59" cy="243.5" rx="22" ry="55.5" fill="#BAFD2D" fill-opacity="0.35"/>
</g>
<g filter="url(#filter2_f_1_275)">
<path d="M93.6926 72C93.6926 92.4345 44.7007 158.5 36.6926 158.5C28.6845 158.5 51.6926 92.4345 51.6926 72C51.6926 51.5655 58.1845 35 66.1926 35C74.2007 35 93.6926 51.5655 93.6926 72Z" fill="white" fill-opacity="0.8"/>
</g>
<defs>
<filter id="filter0_f_1_275" x="37" y="77.7271" width="164.611" height="241.273" filterUnits="userSpaceOnUse" color-interpolation-filters="sRGB">
<feFlood flood-opacity="0" result="BackgroundImageFix"/>
<feBlend mode="normal" in="SourceGraphic" in2="BackgroundImageFix" result="shape"/>
<feGaussianBlur stdDeviation="17.5" result="effect1_foregroundBlur_1_275"/>
</filter>
<filter id="filter1_f_1_275" x="2" y="153" width="114" height="181" filterUnits="userSpaceOnUse" color-interpolation-filters="sRGB">
<feFlood flood-opacity="0" result="BackgroundImageFix"/>
<feBlend mode="normal" in="SourceGraphic" in2="BackgroundImageFix" result="shape"/>
<feGaussianBlur stdDeviation="17.5" result="effect1_foregroundBlur_1_275"/>
</filter>
<filter id="filter2_f_1_275" x="0" y="0" width="128.693" height="193.5" filterUnits="userSpaceOnUse" color-interpolation-filters="sRGB">
<feFlood flood-opacity="0" result="BackgroundImageFix"/>
<feBlend mode="normal" in="SourceGraphic" in2="BackgroundImageFix" result="shape"/>
<feGaussianBlur stdDeviation="17.5" result="effect1_foregroundBlur_1_275"/>
</filter>
</defs>
</svg>
