<svg width="221" height="193" viewBox="0 0 221 193" fill="none" xmlns="http://www.w3.org/2000/svg">
<g opacity="0.32" filter="url(#filter0_f_167_445)">
<path d="M160 88.8886C160 109.907 132.018 126.946 97.5 126.946C62.9822 126.946 35 109.907 35 88.8886C35 67.8704 62.9822 50.8317 97.5 50.8317C132.018 50.8317 160 67.8704 160 88.8886Z" fill="url(#paint0_angular_167_445)"/>
<path d="M186 118.725C186 137.389 161.152 152.52 130.5 152.52C99.8482 152.52 75 137.389 75 118.725C75 100.061 99.8482 84.9307 130.5 84.9307C161.152 84.9307 186 100.061 186 118.725Z" fill="#885EEF"/>
<path d="M96 124.205C96 142.87 86.1503 158 74 158C61.8497 158 52 142.87 52 124.205C52 105.541 61.8497 90.4109 74 90.4109C86.1503 90.4109 96 105.541 96 124.205Z" fill="#226725" fill-opacity="0.35"/>
<path d="M96 57.5297C96 69.9725 47.0081 110.201 39 110.201C30.9919 110.201 54 69.9725 54 57.5297C54 45.0869 60.4919 35 68.5 35C76.5081 35 96 45.0869 96 57.5297Z" fill="white"/>
</g>
<defs>
<filter id="filter0_f_167_445" x="0" y="0" width="221" height="193" filterUnits="userSpaceOnUse" color-interpolation-filters="sRGB">
<feFlood flood-opacity="0" result="BackgroundImageFix"/>
<feBlend mode="normal" in="SourceGraphic" in2="BackgroundImageFix" result="shape"/>
<feGaussianBlur stdDeviation="17.5" result="effect1_foregroundBlur_167_445"/>
</filter>
<radialGradient id="paint0_angular_167_445" cx="0" cy="0" r="1" gradientUnits="userSpaceOnUse" gradientTransform="translate(104.46 101.666) rotate(64.744) scale(62.2881 71.7836)">
<stop stop-color="#8BDDFA"/>
<stop offset="0.479167" stop-color="#5AB1E0"/>
</radialGradient>
</defs>
</svg>
