<svg width="22" height="30" viewBox="0 0 22 30" fill="none" xmlns="http://www.w3.org/2000/svg">
<g opacity="0.97" filter="url(#filter0_b_59_276)">
<path d="M20.9848 15.7388C20.2021 14.7266 19.8202 12.3303 20.1031 11.0824C20.2292 10.5263 20.2587 9.90891 20.1917 9.23016C20.1195 8.43683 19.9002 7.74928 19.5334 7.16648C19.1664 6.58356 18.6712 6.11494 18.0457 5.76043C17.4208 5.40547 16.7412 5.13526 16.0083 4.94898C15.8856 4.91778 15.7598 4.88802 15.6309 4.85968C14.4306 4.59572 13.4842 3.60101 13.4842 2.37203V1.38812C13.4842 0.621483 12.8627 0 12.0961 0C11.3294 0 10.7079 0.621482 10.7079 1.38812V3.3307C10.7079 3.93073 10.4109 4.41618 9.81092 4.42593C9.20059 4.43585 8.50855 3.95032 8.50855 3.33991V1.38831C8.50855 0.621567 7.88698 0 7.12024 0C6.3535 0 5.73193 0.621567 5.73193 1.38831V2.7944C5.73193 3.76881 4.95752 4.56156 3.98311 4.56156L1.64293 4.55043C0.825633 4.54654 0.161011 5.20801 0.161011 6.02532C0.161011 6.83988 0.821348 7.50022 1.63592 7.50022H2.16211C2.89967 7.50022 3.3904 7.76669 3.63429 8.29945C3.75827 8.57026 3.7667 8.8761 3.7667 9.17394V13.8786C3.7667 13.8908 3.7817 13.9007 3.79389 13.9008C3.8209 13.901 3.81573 13.9188 3.78871 13.9188C3.77655 13.9188 3.7667 13.9287 3.7667 13.9408V20.6426C3.7667 20.9912 3.7807 21.3616 3.59814 21.6586C3.42308 21.9434 3.13074 22.0858 2.7211 22.0858H2.11385C1.30908 22.0858 0.621746 22.6665 0.487317 23.46C0.316735 24.4669 1.09264 25.3853 2.11385 25.3853H3.76702C3.99542 25.3853 4.32575 25.3883 4.75863 25.3937C5.29621 25.4013 5.73206 25.8387 5.73206 26.3763V28.6117C5.73206 29.3785 6.35372 30.0002 7.12059 30.0002C7.88745 30.0002 8.50912 29.3785 8.50912 28.6117V26.57C8.50912 25.9597 8.8406 25.4658 9.45092 25.4707C10.0509 25.4755 10.7085 25.9614 10.7085 26.5614V28.612C10.7085 29.3787 11.33 30.0002 12.0967 30.0002C12.8633 30.0002 13.4848 29.3787 13.4848 28.612V27.6456C13.4848 26.3897 14.4747 25.3791 15.7171 25.1952C15.8505 25.1755 15.9807 25.1546 16.1079 25.1325C16.8711 24.9998 17.6015 24.7928 18.2985 24.5102C18.9954 24.2279 19.5782 23.8761 20.0469 23.4554C20.5158 23.0351 20.9031 22.5 21.2101 21.8508C21.5162 21.2016 21.7117 20.4504 21.7956 19.5969C21.9525 17.9266 21.6819 16.6404 20.9848 15.7388ZM8.56254 7.69797C8.56254 7.69799 8.56256 7.698 8.56257 7.698C8.64678 7.698 8.88414 7.69497 9.27473 7.68891C9.66555 7.68272 9.98994 7.67678 10.2483 7.67072C10.5068 7.66478 10.8554 7.67981 11.2943 7.71587C11.733 7.75193 12.1025 7.80011 12.4029 7.8601C12.7033 7.92009 13.0341 8.0193 13.3944 8.15753C13.7553 8.29563 14.0435 8.46399 14.2596 8.66227C14.4762 8.86056 14.6594 9.11309 14.8094 9.41961C14.9598 9.72606 15.035 10.0776 15.035 10.4742C15.035 10.8108 14.981 11.1173 14.8729 11.3939C14.7651 11.6703 14.6024 11.9018 14.3863 12.0881C14.1702 12.2744 13.9474 12.4368 13.719 12.5749C13.4908 12.713 13.1991 12.8243 12.8446 12.9083C12.4902 12.9925 12.1807 13.0586 11.9165 13.1066C11.652 13.1548 11.3215 13.1879 10.9248 13.2058C10.5281 13.2238 10.2275 13.236 10.0233 13.242C9.81887 13.2479 9.53951 13.2479 9.1848 13.242C8.84125 13.2362 8.56273 12.9543 8.56273 12.6107V7.69803C8.56273 7.69798 8.56269 7.69794 8.56264 7.69794H8.56258C8.56256 7.69794 8.56254 7.69795 8.56254 7.69797ZM16.1441 19.9757C16.0296 20.2523 15.8826 20.4928 15.7024 20.6973C15.522 20.9012 15.2845 21.0817 14.9901 21.2378C14.6959 21.3942 14.4101 21.5202 14.1339 21.6164C13.8573 21.713 13.5236 21.7966 13.1334 21.869C12.7423 21.9412 12.3999 21.9919 12.1051 22.0222C11.8108 22.0523 11.4594 22.0762 11.0506 22.0944C10.6421 22.1121 10.3234 22.1213 10.0951 22.1213C9.86668 22.1213 9.57815 22.118 9.22958 22.1121C8.86113 22.1062 8.56242 21.8047 8.56242 21.4362V16.866C8.56242 16.3929 8.94589 16.0034 9.41883 15.9912C9.89377 15.9791 10.2812 15.9735 10.5817 15.9735C10.8822 15.9735 11.297 15.9912 11.826 16.0275C12.3546 16.0634 12.7993 16.1172 13.1602 16.1893C13.5207 16.2616 13.914 16.3726 14.341 16.523C14.7676 16.6732 15.1133 16.8564 15.3779 17.0728C15.6423 17.2895 15.8645 17.5655 16.0448 17.9022C16.2254 18.2386 16.3155 18.6233 16.3155 19.0561C16.3155 19.393 16.2585 19.699 16.1441 19.9757Z" fill="#CDD7DF"/>
</g>
<defs>
<filter id="filter0_b_59_276" x="-20.839" y="-21" width="63.6777" height="72.0002" filterUnits="userSpaceOnUse" color-interpolation-filters="sRGB">
<feFlood flood-opacity="0" result="BackgroundImageFix"/>
<feGaussianBlur in="BackgroundImageFix" stdDeviation="10.5"/>
<feComposite in2="SourceAlpha" operator="in" result="effect1_backgroundBlur_59_276"/>
<feBlend mode="normal" in="SourceGraphic" in2="effect1_backgroundBlur_59_276" result="shape"/>
</filter>
</defs>
</svg>
