<svg width="1303" height="1581" viewBox="0 0 1303 1581" fill="none" xmlns="http://www.w3.org/2000/svg">
<g style="mix-blend-mode:color-dodge" filter="url(#filter0_f_4_57)">
<path d="M1209.26 853.057C1306.45 691.11 1047.73 575.147 906.22 537.409C823.057 510.621 655.684 486.265 651.491 603.152C646.25 749.261 631.166 603.509 269.286 671.607C-92.5931 739.705 665.379 1107.43 868.998 1234.09C1072.62 1360.75 1087.77 1055.49 1209.26 853.057Z" fill="#C6EEC8"/>
<path d="M944.355 642.744C967.084 522.105 817.351 514.594 739.644 525.918C693.225 529.802 604.622 555.379 621.568 626.606C642.75 715.64 611.349 631.703 439.479 759.548C267.609 887.393 710.844 926.217 834.459 953.392C958.075 980.566 915.944 793.542 944.355 642.744Z" fill="#3C7988"/>
<path d="M1056.56 842.701C1053.12 817.464 924.93 762.471 861.266 738.129C822.695 722.793 752.488 698.531 780.232 724.163C814.913 756.204 772.539 721.957 651.065 696.468C529.592 670.978 1187.86 998.624 1297.63 1049.81C1407.4 1100.99 1060.87 874.246 1056.56 842.701Z" fill="#50D5F5"/>
</g>
<defs>
<filter id="filter0_f_4_57" x="22.8019" y="365.227" width="1446.3" height="1048.69" filterUnits="userSpaceOnUse" color-interpolation-filters="sRGB">
<feFlood flood-opacity="0" result="BackgroundImageFix"/>
<feBlend mode="normal" in="SourceGraphic" in2="BackgroundImageFix" result="shape"/>
<feGaussianBlur stdDeviation="75" result="effect1_foregroundBlur_4_57"/>
</filter>
</defs>
</svg>
