<svg xmlns="http://www.w3.org/2000/svg" viewBox="0 0 249.03 67.59"><defs><style>.cls-1{fill:#eaecec;}</style></defs><g id="Слой_2" data-name="Слой 2"><g id="Layer_1" data-name="Layer 1"><path class="cls-1" d="M53.66,56.6V34.53l-19.1-11L24.8,29.25l4.49,2.6,5.27-3.12,14.61,8.49V41.8L32.83,51.15,32.66,51l-25-14.37v-20L3.2,19.21v20L32.83,56.34l16.34-9.52V54L30.07,65l4.49,2.59Z"/><path class="cls-1" d="M20.48,61.53,25,58.85,4.58,47.08,0,49.68Z"/><path class="cls-1" d="M42.69,38.43l-4.58-2.6-5.28,3-14.51-8.4V25.88l16.24-9.35.26.09L59.71,31.07v20l4.58-2.59V28.39L34.56,11.25,18.32,20.77v-7.1L37.41,2.6,32.83,0,13.74,11V33.06L32.83,44.14Z"/><path class="cls-1" d="M62.9,20.6,67.4,18,47,6.14l-4.58,2.6Z"/><path class="cls-1" d="M147.67,14.37h-4.41v21l20.48-.09V31H147.67Z"/><path class="cls-1" d="M178.43,14.28l.09.09L166,35.31l5.53.09,8.64-14.63,8.55,14.63,5.62-.09-12.62-21Z"/><path class="cls-1" d="M125.2,14.28v.09L112.68,35.31l5.61.09,8.64-14.63,8.56,14.63,5.61-.09-12.61-21Z"/><path class="cls-1" d="M220.6,14.28h-6.14L209,20.77l-5.53-6.49h-6.05l8.47,10.13-9.25,10.9,6.05.09L209,28l6.22,7.45,6-.09L212,24.41Z"/><path class="cls-1" d="M85.72,19.65V30a5.39,5.39,0,0,0,5.35,5.37h19.36V23.63H99.28v3.63h6.31v3.81H94a2.73,2.73,0,0,1-2.76-2.77V19h19.09V14.28H91A5.31,5.31,0,0,0,85.72,19.65Z"/><path class="cls-1" d="M242.72,14.28l-6.39,7.36-6.4-7.36h-6.31l9.68,10.91V35.4h6V25.19L249,14.28Z"/><path class="cls-1" d="M86.55,56.92V45.69h4.76a3.18,3.18,0,0,1,1.42.32,3.78,3.78,0,0,1,1.13.85,3.89,3.89,0,0,1,.75,1.21,3.55,3.55,0,0,1,.27,1.36,3.8,3.8,0,0,1-.44,1.8,3.72,3.72,0,0,1-1.22,1.39,3.09,3.09,0,0,1-1.83.54H88.73v3.76Zm2.18-5.68h2.53A1.17,1.17,0,0,0,92,51a1.54,1.54,0,0,0,.51-.63,2.29,2.29,0,0,0,.19-1,2.05,2.05,0,0,0-.22-1,1.47,1.47,0,0,0-.56-.62,1.39,1.39,0,0,0-.72-.2H88.73Zm16.17-5.55h2.21l4.13,11.23H109l-1-2.8H104l-1,2.8h-2.25Zm2.65,6.9L106,48l-1.61,4.63Zm11.16,4.33V45.69h5a3.22,3.22,0,0,1,1.42.32A3.75,3.75,0,0,1,127,48.07a3.55,3.55,0,0,1,.27,1.36A3.78,3.78,0,0,1,127,50.8a3.35,3.35,0,0,1-.7,1.14,3.12,3.12,0,0,1-1.07.76l2.56,4.22h-2.41l-2.3-3.76H120.9v3.76Zm2.19-5.68h2.73a1.18,1.18,0,0,0,.73-.23,1.71,1.71,0,0,0,.5-.67,2.09,2.09,0,0,0,.19-.91,1.89,1.89,0,0,0-.79-1.59,1.26,1.26,0,0,0-.72-.23H120.9Zm22.85-3.63h-3.59v9.31H138V47.61H134.4V45.69h9.35Zm9.82,2.1v7.21h-2.19V45.69h1.74l5.81,7.4V45.71h2.18V56.92h-1.82ZM177.48,55v1.91h-7.79V45.69h7.65v1.92h-5.47v2.7h4.73v1.77h-4.73V55Zm8,1.91V45.69h5a3.22,3.22,0,0,1,1.42.32,3.7,3.7,0,0,1,1.14.85,3.87,3.87,0,0,1,.74,1.21,3.55,3.55,0,0,1,.27,1.36,4,4,0,0,1-.25,1.37,3.35,3.35,0,0,1-.7,1.14,3.22,3.22,0,0,1-1.07.76l2.56,4.22H192.1l-2.3-3.76h-2.19v3.76Zm2.18-5.68h2.74a1.2,1.2,0,0,0,.73-.23,1.71,1.71,0,0,0,.5-.67,2.09,2.09,0,0,0,.19-.91,1.89,1.89,0,0,0-.79-1.59,1.26,1.26,0,0,0-.73-.23h-2.64Zm21.27-2.6a2.21,2.21,0,0,0-.41-.31,5.17,5.17,0,0,0-.71-.36q-.42-.16-.9-.3a3.77,3.77,0,0,0-1-.14,2.32,2.32,0,0,0-1.35.33,1.1,1.1,0,0,0-.44.93,1,1,0,0,0,.29.73,2.31,2.31,0,0,0,.85.46c.38.13.85.26,1.42.41a9.76,9.76,0,0,1,1.92.66,3,3,0,0,1,1.25,1,2.79,2.79,0,0,1,.44,1.64,3.38,3.38,0,0,1-.33,1.55,2.85,2.85,0,0,1-.92,1,4.1,4.1,0,0,1-1.33.58,6.65,6.65,0,0,1-1.58.18,8,8,0,0,1-1.68-.18,9.06,9.06,0,0,1-1.61-.49,7.21,7.21,0,0,1-1.42-.79l1-1.88a3.69,3.69,0,0,0,.51.38,8,8,0,0,0,.89.46,7.87,7.87,0,0,0,1.13.38,5.29,5.29,0,0,0,1.25.16,2.5,2.5,0,0,0,1.35-.3,1,1,0,0,0,.45-.86,1,1,0,0,0-.36-.79,3.28,3.28,0,0,0-1-.49c-.43-.15-.94-.3-1.53-.47a9.4,9.4,0,0,1-1.78-.67,2.64,2.64,0,0,1-1-.95,2.6,2.6,0,0,1-.35-1.42,3.3,3.3,0,0,1,.54-1.93A3.34,3.34,0,0,1,203.85,46a5,5,0,0,1,2.07-.41,6,6,0,0,1,1.49.17,7.71,7.71,0,0,1,1.33.46,7.55,7.55,0,0,1,1.1.61Z"/></g></g></svg>