<svg width="20" height="28" viewBox="0 0 20 28" fill="none" xmlns="http://www.w3.org/2000/svg">
<path d="M18.3893 11.2213H5.8053V7.16645C5.8053 5.06911 7.20353 3.25142 9.16104 2.83195C11.8177 2.41248 14.1947 4.37 14.1947 7.02663C14.1947 7.86556 14.8938 8.42485 15.5929 8.42485C16.292 8.42485 16.9911 7.86556 16.9911 7.02663C16.9911 2.97177 13.4955 -0.383966 9.30086 0.0355018C5.66548 0.454969 3.00885 3.67089 3.00885 7.30627V11.2213H1.61063C0.911515 11.2213 0.212402 11.7806 0.212402 12.6195V26.6018C0.212402 27.3009 0.911515 28 1.61063 28H18.3893C19.2283 28 19.7875 27.3009 19.7875 26.6018V12.6195C19.7875 11.7806 19.2283 11.2213 18.3893 11.2213ZM11.3982 20.5894V22.4071C11.3982 23.246 10.8389 23.8053 9.99998 23.8053C9.16104 23.8053 8.60175 23.246 8.60175 22.4071V20.5894C7.76282 20.0301 7.20353 19.1912 7.20353 18.2124C7.20353 16.3947 8.8814 15.1363 10.6991 15.5558C11.6778 15.8354 12.5168 16.6744 12.7964 17.6531C13.0761 18.9115 12.377 20.0301 11.3982 20.5894Z" fill="#CDD7DF"/>
</svg>
