<svg width="996" height="2241" viewBox="0 0 996 2241" fill="none" xmlns="http://www.w3.org/2000/svg">
<g style="mix-blend-mode:color-dodge" filter="url(#filter0_f_4_585)">
<path d="M1058.05 631.551C1262.3 585.501 1214.56 755.899 1165.16 846.854C1140.31 900.709 1063.5 1006.51 955.049 998.895C819.491 989.37 942.717 1011.45 667.158 1229.66C391.599 1447.87 506.076 946.214 511.558 809.015C517.041 671.815 802.74 689.113 1058.05 631.551Z" fill="#9AC7FC"/>
<path d="M1368.89 843.268C1592.22 887.014 1506.44 1170.52 1435.63 1306.8C1398.31 1390.26 1295.7 1536.63 1183.87 1454.39C1044.08 1351.6 1168.33 1469.74 834.19 1697.92C500.052 1926.09 725.339 1075.04 759.94 826.044C794.541 577.045 1089.74 788.585 1368.89 843.268Z" fill="#101F2B"/>
<path d="M1349.86 712.615C1496.04 739.13 1436.47 895.454 1388.42 970.302C1362.95 1016.2 1293.9 1096.32 1221.39 1049.59C1130.75 991.178 1211.01 1057.94 988.957 1181.07C766.908 1304.21 791.341 458.968 816.901 321.257C842.461 183.547 1167.14 679.471 1349.86 712.615Z" fill="white"/>
</g>
<defs>
<filter id="filter0_f_4_585" x="333.376" y="147.157" width="1329.3" height="1739.22" filterUnits="userSpaceOnUse" color-interpolation-filters="sRGB">
<feFlood flood-opacity="0" result="BackgroundImageFix"/>
<feBlend mode="normal" in="SourceGraphic" in2="BackgroundImageFix" result="shape"/>
<feGaussianBlur stdDeviation="75" result="effect1_foregroundBlur_4_585"/>
</filter>
</defs>
</svg>
