<svg width="705" height="2031" viewBox="0 0 705 2031" fill="none" xmlns="http://www.w3.org/2000/svg">
<g style="mix-blend-mode:color-dodge" filter="url(#filter0_f_4_47)">
<path d="M445.088 530.488C614.249 658.004 393.731 888.244 262.327 987.424C187.041 1050.51 23.1032 1146.7 -30.3551 1026.75C-97.178 876.82 -51.6552 1034.98 -456.827 1117.2C-861.999 1199.42 -227.713 495.741 -69.028 277.68C89.657 59.6192 233.638 371.093 445.088 530.488Z" fill="#C59AFC"/>
<path d="M421.115 1100.94C542.864 1293.2 277.997 1425.79 130.344 1468.05C44.0714 1498.32 -132.762 1524.41 -149.911 1386.66C-171.346 1214.48 -171.743 1385.93 -567.148 1300.11C-962.552 1214.28 -189.607 792.877 15.0168 646.839C219.641 500.802 268.93 860.606 421.115 1100.94Z" fill="#709BBA"/>
<path d="M318.198 864.44C352.415 928.038 223.267 1024.99 154.415 1065.52C113.632 1091.58 33.6076 1129.65 39.7789 1073.42C47.493 1003.13 30.2917 1076.42 -134.326 1099.95C-298.944 1123.48 292.468 509.442 396.573 415.911C500.679 322.379 275.427 784.942 318.198 864.44Z" fill="white"/>
</g>
<defs>
<filter id="filter0_f_4_47" x="-828.087" y="52.7368" width="1484.51" height="1589.43" filterUnits="userSpaceOnUse" color-interpolation-filters="sRGB">
<feFlood flood-opacity="0" result="BackgroundImageFix"/>
<feBlend mode="normal" in="SourceGraphic" in2="BackgroundImageFix" result="shape"/>
<feGaussianBlur stdDeviation="75" result="effect1_foregroundBlur_4_47"/>
</filter>
</defs>
</svg>
